<svg xmlns="http://www.w3.org/2000/svg" viewBox="0 0 753 387" font-weight="normal" text-decoration="none" width="753px" xmlns:xlink="http://www.w3.org/1999/xlink" font-size="15" font-family="sans-serif" font-style="normal" version="1.1" height="387px"><title>Temperature on Wednesday, 10 September 2025 in Orem</title><defs><clipPath id="plot-sample-bounds-1"><rect x="85.8" width="581.5" y="0" height="365"></rect></clipPath><clipPath id="plot-sample-bounds-scaled-1"><rect x="857.7" width="5814.6" y="0" height="3650"></rect></clipPath></defs><g transform="scale(0.1)"></g><g><rect x="85.8" width="148.6" y="30" fill="#e9cc77" fill-opacity="1.000" stroke="none" height="25"></rect><text text-anchor="middle" x="160.1" y="45.9">comfortable</text></g><g><rect x="234.4" width="21.5" y="30" fill="#8dbf71" fill-opacity="1.000" stroke="none" height="25"></rect></g><g><rect x="255.9" width="64.6" y="30" fill="#e9cc77" fill-opacity="1.000" stroke="none" height="25"></rect></g><g><rect x="320.5" width="64.6" y="30" fill="#c77560" fill-opacity="1.000" stroke="none" height="25"></rect><text text-anchor="middle" x="352.8" y="45.9">warm</text></g><g><rect x="385.1" width="150.7" y="30" fill="#b05b5a" fill-opacity="1.000" stroke="none" height="25"></rect><text text-anchor="middle" x="460.5" y="45.9">hot</text></g><g><rect x="535.9" width="86.1" y="30" fill="#c77560" fill-opacity="1.000" stroke="none" height="25"></rect><text text-anchor="middle" x="578.9" y="45.9">warm</text></g><g><rect x="622" width="45.2" y="30" fill="#e9cc77" fill-opacity="1.000" stroke="none" height="25"></rect></g><g transform="scale(0.1)"><path d="M858,2793l215,85l215,66l216,56l215,59l215,45l216,34l215,36l216,30l215,-45l215,-169l216,-203l215,-170l215,-132l216,-70l215,-65l215,-37l216,-10l215,0l215,19l216,58l215,130l216,150l215,76l215,82l216,82l215,66l215,56l0,-993l-215,-40l-215,-40l-216,-54l-215,-85l-215,-139l-216,-225l-215,-234l-216,-99l-215,-34l-215,-2l-216,39l-215,78l-215,117l-216,152l-215,188l-215,206l-216,189l-215,130l-215,13l-216,-49l-215,-27l-216,-29l-215,-46l-215,-37l-216,-38l-215,-38l-215,-51Z" fill="#492e68" fill-opacity="0.125" stroke="none"></path><path d="M858,2557l215,67l215,79l216,64l215,57l215,45l216,30l215,25l216,32l215,-36l215,-203l216,-222l215,-191l215,-143l216,-90l215,-94l215,-58l216,-42l215,15l215,25l216,84l215,178l216,182l215,130l215,87l216,71l215,79l215,65l0,-514l-215,-47l-215,-68l-216,-63l-215,-97l-215,-150l-216,-213l-215,-233l-216,-111l-215,-31l-215,1l-216,33l-215,67l-215,106l-216,154l-215,190l-215,218l-216,227l-215,150l-215,27l-216,-21l-215,-35l-216,-43l-215,-40l-215,-44l-216,-47l-215,-69l-215,-63Z" fill="#492e68" fill-opacity="0.125" stroke="none"></path><g clip-path="url(#plot-sample-bounds-scaled-1)"><path stroke-opacity="0.3764705882352941" d="M858,2321l54,17l53,18l54,18l54,17l54,15l54,15l54,14l53,14l54,14l54,13l54,14l54,13l54,13l53,13l54,13l54,12l54,11l54,11l54,11l53,10l54,10l54,9l54,10l54,8l54,9l54,8l53,7l54,8l54,8l54,9l54,7l54,3l53,-1l54,-3l54,-8l54,-18l54,-29l54,-39l53,-44l54,-47l54,-50l54,-55l54,-57l54,-54l53,-52l54,-51l54,-50l54,-48l54,-45l54,-43l53,-41l54,-38l54,-35l54,-32l54,-30l54,-28l54,-27l53,-25l54,-23l54,-21l54,-18l54,-15l54,-14l53,-11l54,-10l54,-9l54,-6l54,-5l54,-4l53,-2l54,-1l54,2l54,4l54,6l54,9l53,13l54,16l54,19l54,24l54,32l54,42l54,51l53,55l54,52l54,51l54,52l54,50l54,44l53,37l54,32l54,28l54,27l54,27l54,24l53,22l54,21l54,20l54,17l54,16l54,16l53,16l54,15l54,15l54,14l54,14l54,13l53,13l54,14" stroke-width="20" fill="none" stroke="#6b5980"></path></g><line stroke-opacity="1.0" y1="2055.5" x1="857.7" y2="2055.5" x2="1374.5" stroke-width="10" fill="none" stroke="#4646b9"></line><line stroke-opacity="1.0" y1="2030.5" x1="1374.5" y2="2080.5" x2="1374.5" stroke-width="10" stroke="#4646b9"></line><line stroke-opacity="1.0" y1="1099.5" x1="857.7" y2="1099.5" x2="1374.5" stroke-width="10" fill="none" stroke="#ba4545"></line><line stroke-opacity="1.0" y1="1074.5" x1="1374.5" y2="1124.5" x2="1374.5" stroke-width="10" stroke="#ba4545"></line><line stroke-opacity="1.0" y1="2428.5" x1="1374.5" y2="2428.5" x2="6543.1" stroke-width="10" fill="none" stroke="#4646b9"></line><line stroke-opacity="1.0" y1="2403.5" x1="1374.5" y2="2453.5" x2="1374.5" stroke-width="10" stroke="#4646b9"></line><line stroke-opacity="1.0" y1="2403.5" x1="6543.1" y2="2453.5" x2="6543.1" stroke-width="10" stroke="#4646b9"></line><line stroke-opacity="1.0" y1="946.5" x1="1374.5" y2="946.5" x2="6543.1" stroke-width="10" fill="none" stroke="#ba4545"></line><line stroke-opacity="1.0" y1="921.5" x1="1374.5" y2="971.5" x2="1374.5" stroke-width="10" stroke="#ba4545"></line><line stroke-opacity="1.0" y1="921.5" x1="6543.1" y2="971.5" x2="6543.1" stroke-width="10" stroke="#ba4545"></line><line stroke-opacity="0.5019607843137255" y1="2007.5" x1="857.7" y2="2007.5" x2="1159.2" stroke-width="10" fill="none" stroke="#4646b9"></line><line stroke-opacity="0.5019607843137255" y1="1982.5" x1="1159.2" y2="2032.5" x2="1159.2" stroke-width="10" stroke="#4646b9"></line><line stroke-opacity="0.5019607843137255" y1="1261.5" x1="857.7" y2="1261.5" x2="1159.2" stroke-width="10" fill="none" stroke="#ba4545"></line><line stroke-opacity="0.5019607843137255" y1="1236.5" x1="1159.2" y2="1286.5" x2="1159.2" stroke-width="10" stroke="#ba4545"></line><line stroke-opacity="0.5019607843137255" y1="2428.5" x1="1159.2" y2="2428.5" x2="2451.3" stroke-width="10" fill="none" stroke="#4646b9"></line><line stroke-opacity="0.5019607843137255" y1="2403.5" x1="1159.2" y2="2453.5" x2="1159.2" stroke-width="10" stroke="#4646b9"></line><line stroke-opacity="0.5019607843137255" y1="2403.5" x1="2451.3" y2="2453.5" x2="2451.3" stroke-width="10" stroke="#4646b9"></line><line stroke-opacity="0.5019607843137255" y1="1950.5" x1="1159.2" y2="1950.5" x2="2451.3" stroke-width="10" fill="none" stroke="#ba4545"></line><line stroke-opacity="0.5019607843137255" y1="1925.5" x1="1159.2" y2="1975.5" x2="1159.2" stroke-width="10" stroke="#ba4545"></line><line stroke-opacity="0.5019607843137255" y1="1925.5" x1="2451.3" y2="1975.5" x2="2451.3" stroke-width="10" stroke="#ba4545"></line><line stroke-opacity="0.5019607843137255" y1="2428.5" x1="2451.3" y2="2428.5" x2="3743.5" stroke-width="10" fill="none" stroke="#4646b9"></line><line stroke-opacity="0.5019607843137255" y1="2403.5" x1="2451.3" y2="2453.5" x2="2451.3" stroke-width="10" stroke="#4646b9"></line><line stroke-opacity="0.5019607843137255" y1="2403.5" x1="3743.5" y2="2453.5" x2="3743.5" stroke-width="10" stroke="#4646b9"></line><line stroke-opacity="0.5019607843137255" y1="1319.5" x1="2451.3" y2="1319.5" x2="3743.5" stroke-width="10" fill="none" stroke="#ba4545"></line><line stroke-opacity="0.5019607843137255" y1="1294.5" x1="2451.3" y2="1344.5" x2="2451.3" stroke-width="10" stroke="#ba4545"></line><line stroke-opacity="0.5019607843137255" y1="1294.5" x1="3743.5" y2="1344.5" x2="3743.5" stroke-width="10" stroke="#ba4545"></line><line stroke-opacity="0.5019607843137255" y1="1366.5" x1="3743.5" y2="1366.5" x2="5035.6" stroke-width="10" fill="none" stroke="#4646b9"></line><line stroke-opacity="0.5019607843137255" y1="1341.5" x1="3743.5" y2="1391.5" x2="3743.5" stroke-width="10" stroke="#4646b9"></line><line stroke-opacity="0.5019607843137255" y1="1341.5" x1="5035.6" y2="1391.5" x2="5035.6" stroke-width="10" stroke="#4646b9"></line><line stroke-opacity="0.5019607843137255" y1="946.5" x1="3743.5" y2="946.5" x2="5035.6" stroke-width="10" fill="none" stroke="#ba4545"></line><line stroke-opacity="0.5019607843137255" y1="921.5" x1="3743.5" y2="971.5" x2="3743.5" stroke-width="10" stroke="#ba4545"></line><line stroke-opacity="0.5019607843137255" y1="921.5" x1="5035.6" y2="971.5" x2="5035.6" stroke-width="10" stroke="#ba4545"></line><line stroke-opacity="0.5019607843137255" y1="1950.5" x1="5035.6" y2="1950.5" x2="6327.8" stroke-width="10" fill="none" stroke="#4646b9"></line><line stroke-opacity="0.5019607843137255" y1="1925.5" x1="5035.6" y2="1975.5" x2="5035.6" stroke-width="10" stroke="#4646b9"></line><line stroke-opacity="0.5019607843137255" y1="1925.5" x1="6327.8" y2="1975.5" x2="6327.8" stroke-width="10" stroke="#4646b9"></line><line stroke-opacity="0.5019607843137255" y1="1099.5" x1="5035.6" y2="1099.5" x2="6327.8" stroke-width="10" fill="none" stroke="#ba4545"></line><line stroke-opacity="0.5019607843137255" y1="1074.5" x1="5035.6" y2="1124.5" x2="5035.6" stroke-width="10" stroke="#ba4545"></line><line stroke-opacity="0.5019607843137255" y1="1074.5" x1="6327.8" y2="1124.5" x2="6327.8" stroke-width="10" stroke="#ba4545"></line><line stroke-opacity="0.5019607843137255" y1="2323.5" x1="6327.8" y2="2323.5" x2="6672.3" stroke-width="10" fill="none" stroke="#4646b9"></line><line stroke-opacity="0.5019607843137255" y1="2298.5" x1="6327.8" y2="2348.5" x2="6327.8" stroke-width="10" stroke="#4646b9"></line><line stroke-opacity="0.5019607843137255" y1="1845.5" x1="6327.8" y2="1845.5" x2="6672.3" stroke-width="10" fill="none" stroke="#ba4545"></line><line stroke-opacity="0.5019607843137255" y1="1820.5" x1="6327.8" y2="1870.5" x2="6327.8" stroke-width="10" stroke="#ba4545"></line><g clip-path="url(#plot-sample-bounds-scaled-1)"><path stroke-opacity="1.0" d="M728,1902l216,48l215,0l216,105l215,105l215,57l216,-210l215,105l215,316l216,-105l215,-48l215,-325l216,-316l215,-162l215,-153l216,-115l215,-48l216,-105l215,-58l215,-47l216,153l215,162l215,105l216,163l215,153l215,115l216,105l176,0l39,48l215,57" stroke-width="5" fill="none" stroke="#000"></path></g><g fill="#000" stroke="none"><circle r="20" cx="943.8" cy="1949.7" fill="#000" stroke="none"></circle><circle r="20" cx="1159.2" cy="1949.7" fill="#000" stroke="none"></circle><circle r="20" cx="1374.5" cy="2054.9" fill="#000" stroke="none"></circle><circle r="20" cx="1589.9" cy="2160.1" fill="#000" stroke="none"></circle><circle r="20" cx="1805.3" cy="2217.5" fill="#000" stroke="none"></circle><circle r="20" cx="2020.6" cy="2007.1" fill="#000" stroke="none"></circle><circle r="20" cx="2236" cy="2112.3" fill="#000" stroke="none"></circle><circle r="20" cx="2451.3" cy="2427.8" fill="#000" stroke="none"></circle><circle r="20" cx="2666.7" cy="2322.7" fill="#000" stroke="none"></circle><circle r="20" cx="2882" cy="2274.8" fill="#000" stroke="none"></circle><circle r="20" cx="3097.4" cy="1949.7" fill="#000" stroke="none"></circle><circle r="20" cx="3312.8" cy="1634.1" fill="#000" stroke="none"></circle><circle r="20" cx="3528.1" cy="1471.6" fill="#000" stroke="none"></circle><circle r="20" cx="3743.5" cy="1318.6" fill="#000" stroke="none"></circle><circle r="20" cx="3958.8" cy="1203.8" fill="#000" stroke="none"></circle><circle r="20" cx="4174.2" cy="1156" fill="#000" stroke="none"></circle><circle r="20" cx="4389.5" cy="1050.8" fill="#000" stroke="none"></circle><circle r="20" cx="4604.9" cy="993.4" fill="#000" stroke="none"></circle><circle r="20" cx="4820.3" cy="945.6" fill="#000" stroke="none"></circle><circle r="20" cx="5035.6" cy="1098.6" fill="#000" stroke="none"></circle><circle r="20" cx="5251" cy="1261.2" fill="#000" stroke="none"></circle><circle r="20" cx="5466.3" cy="1366.4" fill="#000" stroke="none"></circle><circle r="20" cx="5681.7" cy="1529" fill="#000" stroke="none"></circle><circle r="20" cx="5897" cy="1682" fill="#000" stroke="none"></circle><circle r="20" cx="6112.4" cy="1796.7" fill="#000" stroke="none"></circle><circle r="20" cx="6327.8" cy="1901.9" fill="#000" stroke="none"></circle><circle r="20" cx="6503.6" cy="1901.9" fill="#000" stroke="none"></circle><circle r="20" cx="6543.1" cy="1949.7" fill="#000" stroke="none"></circle></g><g clip-path="url(#plot-sample-bounds-scaled-1)" stroke-dasharray="10 20"><path stroke-opacity="1.0" d="M728,1977l216,47l215,-3l216,102l215,99l215,49l216,-195l215,101l215,297l216,-97l215,-50l215,-317l216,-315l215,-116l215,-103l216,-85l215,-36l216,-88l215,-34l215,-15l216,127l215,106l215,70l216,114l215,130l215,114l216,100l176,1l39,46l215,55" stroke-width="5" fill="none" stroke="#000"></path></g></g><g><rect x="85.8" width="62.5" y="5" fill="#000" fill-opacity="0.188" stroke="none" height="360"></rect></g><g><rect x="148.2" width="111.9" y="5" fill="#000" fill-opacity="0.188" stroke="none" height="360"></rect><text text-anchor="middle" x="204.2" y="24.5" opacity="1" fill="#000">night</text></g><g><rect x="260.1" width="9.9" y="5" fill="#000" fill-opacity="0.125" stroke="none" height="360"></rect></g><g><text text-anchor="middle" x="406.4" y="24.5" opacity="1" fill="#000">day</text></g><g><rect x="542.8" width="9.8" y="5" fill="#000" fill-opacity="0.125" stroke="none" height="360"></rect></g><g><rect x="552.6" width="112.3" y="5" fill="#000" fill-opacity="0.188" stroke="none" height="360"></rect><text text-anchor="middle" x="608.8" y="24.5" opacity="1" fill="#000">night</text></g><g><rect x="664.9" width="2.3" y="5" fill="#000" fill-opacity="0.188" stroke="none" height="360"></rect></g><g><rect x="118.1" width="19.4" y="30" fill="#000" fill-opacity="0.004" stroke="none" height="335"></rect></g><g><rect x="137.5" width="21.5" y="30" fill="#000" fill-opacity="0.004" stroke="none" height="335"></rect></g><g><rect x="159" width="21.5" y="30" fill="#000" fill-opacity="0.004" stroke="none" height="335"></rect></g><g><rect x="180.5" width="21.5" y="30" fill="#000" fill-opacity="0.004" stroke="none" height="335"></rect></g><g><rect x="202.1" width="21.5" y="30" fill="#000" fill-opacity="0.004" stroke="none" height="335"></rect></g><g><rect x="223.6" width="21.5" y="30" fill="#000" fill-opacity="0.004" stroke="none" height="335"></rect></g><g><rect x="245.1" width="21.5" y="30" fill="#000" fill-opacity="0.004" stroke="none" height="335"></rect></g><g><rect x="266.7" width="21.5" y="30" fill="#000" fill-opacity="0.004" stroke="none" height="335"></rect></g><g><rect x="288.2" width="21.5" y="30" fill="#000" fill-opacity="0.004" stroke="none" height="335"></rect></g><g><rect x="309.7" width="21.5" y="30" fill="#000" fill-opacity="0.004" stroke="none" height="335"></rect></g><g><rect x="331.3" width="21.5" y="30" fill="#000" fill-opacity="0.004" stroke="none" height="335"></rect></g><g><rect x="352.8" width="21.5" y="30" fill="#000" fill-opacity="0.004" stroke="none" height="335"></rect></g><g><rect x="374.3" width="21.5" y="30" fill="#000" fill-opacity="0.004" stroke="none" height="335"></rect></g><g><rect x="395.9" width="21.5" y="30" fill="#000" fill-opacity="0.004" stroke="none" height="335"></rect></g><g><rect x="417.4" width="21.5" y="30" fill="#000" fill-opacity="0.004" stroke="none" height="335"></rect></g><g><rect x="439" width="21.5" y="30" fill="#000" fill-opacity="0.004" stroke="none" height="335"></rect></g><g><rect x="460.5" width="21.5" y="30" fill="#000" fill-opacity="0.004" stroke="none" height="335"></rect></g><g><rect x="482" width="21.5" y="30" fill="#000" fill-opacity="0.004" stroke="none" height="335"></rect></g><g><rect x="503.6" width="21.5" y="30" fill="#000" fill-opacity="0.004" stroke="none" height="335"></rect></g><g><rect x="525.1" width="21.5" y="30" fill="#000" fill-opacity="0.004" stroke="none" height="335"></rect></g><g><rect x="546.6" width="21.5" y="30" fill="#000" fill-opacity="0.004" stroke="none" height="335"></rect></g><g><rect x="568.2" width="21.5" y="30" fill="#000" fill-opacity="0.004" stroke="none" height="335"></rect></g><g><rect x="589.7" width="21.5" y="30" fill="#000" fill-opacity="0.004" stroke="none" height="335"></rect></g><g><rect x="611.2" width="21.5" y="30" fill="#000" fill-opacity="0.004" stroke="none" height="335"></rect></g><g><rect x="632.8" width="2.2" y="30" fill="#000" fill-opacity="0.004" stroke="none" height="335"></rect></g><g stroke-opacity="0.072" stroke-width="1" fill="none" stroke="#000"><line y1="30" x1="96.5" y2="370" x2="96.5"></line><line stroke-opacity="0.12" y1="30" x1="118.1" y2="370" x2="118.1"></line><line y1="30" x1="139.6" y2="370" x2="139.6"></line><line y1="30" x1="161.1" y2="370" x2="161.1"></line><line stroke-opacity="0.12" y1="30" x1="182.7" y2="370" x2="182.7"></line><line y1="30" x1="204.2" y2="370" x2="204.2"></line><line y1="30" x1="225.8" y2="370" x2="225.8"></line><line stroke-opacity="0.12" y1="30" x1="247.3" y2="370" x2="247.3"></line><line y1="30" x1="268.8" y2="370" x2="268.8"></line><line y1="30" x1="290.4" y2="370" x2="290.4"></line><line stroke-opacity="0.12" y1="30" x1="311.9" y2="370" x2="311.9"></line><line y1="30" x1="333.4" y2="370" x2="333.4"></line><line y1="30" x1="355" y2="370" x2="355"></line><line stroke-opacity="0.12" y1="30" x1="376.5" y2="370" x2="376.5"></line><line y1="30" x1="398" y2="370" x2="398"></line><line y1="30" x1="419.6" y2="370" x2="419.6"></line><line stroke-opacity="0.12" y1="30" x1="441.1" y2="370" x2="441.1"></line><line y1="30" x1="462.6" y2="370" x2="462.6"></line><line y1="30" x1="484.2" y2="370" x2="484.2"></line><line stroke-opacity="0.12" y1="30" x1="505.7" y2="370" x2="505.7"></line><line y1="30" x1="527.3" y2="370" x2="527.3"></line><line y1="30" x1="548.8" y2="370" x2="548.8"></line><line stroke-opacity="0.12" y1="30" x1="570.3" y2="370" x2="570.3"></line><line y1="30" x1="591.9" y2="370" x2="591.9"></line><line y1="30" x1="613.4" y2="370" x2="613.4"></line><line stroke-opacity="0.12" y1="30" x1="634.9" y2="370" x2="634.9"></line><line y1="30" x1="656.5" y2="370" x2="656.5"></line><line y1="317.4" x1="72" y2="317.4" x2="681"></line><line y1="269.6" x1="72" y2="269.6" x2="681"></line><line y1="221.7" x1="72" y2="221.7" x2="681"></line><line y1="173.9" x1="72" y2="173.9" x2="681"></line><line y1="126.1" x1="72" y2="126.1" x2="681"></line><line y1="78.3" x1="72" y2="78.3" x2="681"></line><line y1="30.5" x1="72" y2="30.5" x2="681"></line></g><g></g><text text-anchor="middle" x="118.1" y="381.5" stroke="none">12 am</text><g></g><text text-anchor="middle" x="182.7" y="381.5" stroke="none">3 am</text><g></g><text text-anchor="middle" x="247.3" y="381.5" stroke="none">6 am</text><g></g><text text-anchor="middle" x="311.9" y="381.5" stroke="none">9 am</text><g></g><text text-anchor="middle" x="376.5" y="381.5" stroke="none">12 pm</text><g></g><text text-anchor="middle" x="441.1" y="381.5" stroke="none">3 pm</text><g></g><text text-anchor="middle" x="505.7" y="381.5" stroke="none">6 pm</text><g></g><text text-anchor="middle" x="570.3" y="381.5" stroke="none">9 pm</text><g></g><text text-anchor="middle" x="634.9" y="381.5" stroke="none">12 am</text><g fill="#666" stroke="none"><text text-anchor="end" x="71" y="322.6">10°C</text><text x="682" y="322.6">10°C</text><text text-anchor="end" x="71" y="274.8">15°C</text><text x="682" y="274.8">15°C</text><text text-anchor="end" x="71" y="226.9">20°C</text><text x="682" y="226.9">20°C</text><text text-anchor="end" x="71" y="179.1">25°C</text><text x="682" y="179.1">25°C</text><text text-anchor="end" x="71" y="131.3">30°C</text><text x="682" y="131.3">30°C</text><text text-anchor="end" x="71" y="83.5">35°C</text><text x="682" y="83.5">35°C</text><text text-anchor="end" x="71" y="35.7">40°C</text><text x="682" y="35.7">40°C</text></g><rect x="85.8" width="32.3" y="5" fill="#fff" fill-opacity="0.000" stroke="none" height="25"></rect><g><rect x="85.8" width="32.3" y="30" fill="#fff" fill-opacity="0.004" stroke="none" height="335"></rect><path stroke-opacity="0.3" d="M109.4,212.5L94.4,197.5L109.4,182.5" stroke-linejoin="round" stroke-width="5" fill="none" stroke="#000" stroke-linecap="round"></path><path stroke-opacity="0.6" d="M109.4,212.5L94.4,197.5L109.4,182.5" stroke-linejoin="round" stroke-width="3" fill="none" stroke="#fff" stroke-linecap="round"></path><line stroke-opacity="0.5019607843137255" y1="30" x1="118.1" y2="365" x2="118.1" stroke-width="0.5" fill="none" stroke="#000"></line></g><rect x="634.9" width="32.3" y="5" fill="#fff" fill-opacity="0.000" stroke="none" height="25"></rect><g><rect x="634.9" width="32.3" y="30" fill="#fff" fill-opacity="0.004" stroke="none" height="335"></rect><path stroke-opacity="0.3" d="M643.6,212.5L658.6,197.5L643.6,182.5" stroke-linejoin="round" stroke-width="5" fill="none" stroke="#000" stroke-linecap="round"></path><path stroke-opacity="0.6" d="M643.6,212.5L658.6,197.5L643.6,182.5" stroke-linejoin="round" stroke-width="3" fill="none" stroke="#fff" stroke-linecap="round"></path><line stroke-opacity="0.5019607843137255" y1="30" x1="634.9" y2="365" x2="634.9" stroke-width="0.5" fill="none" stroke="#000"></line></g><g font-weight="normal" text-decoration="none" font-size="15" font-family="sans-serif" font-style="normal"><g font-weight="normal" text-decoration="none" font-size="15" font-family="sans-serif" font-style="normal" opacity="1" fill="#4646b9" stroke="none"><g opacity="0.4"><text text-anchor="middle" x="111.6" y="222.5" stroke-linejoin="bevel" stroke-width="4" fill="#fff" stroke="#fff">21.7°C</text></g><text text-anchor="middle" x="111.6" y="222.5">21.7°C</text></g></g><g font-weight="normal" text-decoration="none" font-size="15" font-family="sans-serif" font-style="normal"><g font-weight="normal" text-decoration="none" font-size="15" font-family="sans-serif" font-style="normal" opacity="1" fill="#ba4545" stroke="none"><g opacity="0.4"><text text-anchor="middle" x="111.6" y="103.4" stroke-linejoin="bevel" stroke-width="4" fill="#fff" stroke="#fff">31.7°C</text></g><text text-anchor="middle" x="111.6" y="103.4">31.7°C</text></g></g><g font-weight="normal" text-decoration="none" font-size="15" font-family="sans-serif" font-style="normal"><g font-weight="normal" text-decoration="none" font-size="15" font-family="sans-serif" font-style="normal" opacity="1" fill="#4646b9" stroke="none"><g opacity="0.4"><text text-anchor="middle" x="395.9" y="259.8" stroke-linejoin="bevel" stroke-width="4" fill="#fff" stroke="#fff">17.8°C</text></g><text text-anchor="middle" x="395.9" y="259.8">17.8°C</text></g></g><g font-weight="normal" text-decoration="none" font-size="15" font-family="sans-serif" font-style="normal"><g font-weight="normal" text-decoration="none" font-size="15" font-family="sans-serif" font-style="normal" opacity="1" fill="#ba4545" stroke="none"><g opacity="0.4"><text text-anchor="middle" x="395.9" y="88.1" stroke-linejoin="bevel" stroke-width="4" fill="#fff" stroke="#fff">33.3°C</text></g><text text-anchor="middle" x="395.9" y="88.1">33.3°C</text></g></g><g font-weight="normal" text-decoration="none" font-size="15" font-family="sans-serif" font-style="normal"><g font-weight="normal" text-decoration="none" font-size="15" font-family="sans-serif" font-style="normal" opacity="0.5" fill="#4646b9" stroke="none"><g opacity="0.4"><text text-anchor="middle" x="180.5" y="259.8" stroke-linejoin="bevel" stroke-width="4" fill="#fff" stroke="#fff">17.8°C</text></g><text text-anchor="middle" x="180.5" y="259.8">17.8°C</text></g></g><g font-weight="normal" text-decoration="none" font-size="15" font-family="sans-serif" font-style="normal"><g font-weight="normal" text-decoration="none" font-size="15" font-family="sans-serif" font-style="normal" opacity="0.5" fill="#ba4545" stroke="none"><g opacity="0.4"><text text-anchor="middle" x="180.5" y="188.5" stroke-linejoin="bevel" stroke-width="4" fill="#fff" stroke="#fff">22.8°C</text></g><text text-anchor="middle" x="180.5" y="188.5">22.8°C</text></g></g><g font-weight="normal" text-decoration="none" font-size="15" font-family="sans-serif" font-style="normal"><g font-weight="normal" text-decoration="none" font-size="15" font-family="sans-serif" font-style="normal" opacity="0.5" fill="#4646b9" stroke="none"><g opacity="0.4"><text text-anchor="middle" x="309.7" y="259.8" stroke-linejoin="bevel" stroke-width="4" fill="#fff" stroke="#fff">17.8°C</text></g><text text-anchor="middle" x="309.7" y="259.8">17.8°C</text></g></g><g font-weight="normal" text-decoration="none" font-size="15" font-family="sans-serif" font-style="normal"><g font-weight="normal" text-decoration="none" font-size="15" font-family="sans-serif" font-style="normal" opacity="0.5" fill="#ba4545" stroke="none"><g opacity="0.4"><text text-anchor="middle" x="309.7" y="125.4" stroke-linejoin="bevel" stroke-width="4" fill="#fff" stroke="#fff">29.4°C</text></g><text text-anchor="middle" x="309.7" y="125.4">29.4°C</text></g></g><g font-weight="normal" text-decoration="none" font-size="15" font-family="sans-serif" font-style="normal"><g font-weight="normal" text-decoration="none" font-size="15" font-family="sans-serif" font-style="normal" opacity="0.5" fill="#4646b9" stroke="none"><g opacity="0.4"><text text-anchor="middle" x="439" y="153.6" stroke-linejoin="bevel" stroke-width="4" fill="#fff" stroke="#fff">28.9°C</text></g><text text-anchor="middle" x="439" y="153.6">28.9°C</text></g></g><g font-weight="normal" text-decoration="none" font-size="15" font-family="sans-serif" font-style="normal"><g font-weight="normal" text-decoration="none" font-size="15" font-family="sans-serif" font-style="normal" opacity="0.5" fill="#4646b9" stroke="none"><g opacity="0.4"><text text-anchor="middle" x="568.2" y="212" stroke-linejoin="bevel" stroke-width="4" fill="#fff" stroke="#fff">22.8°C</text></g><text text-anchor="middle" x="568.2" y="212">22.8°C</text></g></g><g font-weight="normal" text-decoration="none" font-size="15" font-family="sans-serif" font-style="normal"><g font-weight="normal" text-decoration="none" font-size="15" font-family="sans-serif" font-style="normal" opacity="0.5" fill="#ba4545" stroke="none"><g opacity="0.4"><text text-anchor="middle" x="568.2" y="103.4" stroke-linejoin="bevel" stroke-width="4" fill="#fff" stroke="#fff">31.7°C</text></g><text text-anchor="middle" x="568.2" y="103.4">31.7°C</text></g></g><g font-weight="normal" text-decoration="none" font-size="15" font-family="sans-serif" font-style="normal"><g font-weight="normal" text-decoration="none" font-size="15" font-family="sans-serif" font-style="normal" opacity="0.5" fill="#4646b9" stroke="none"><g opacity="0.4"><text text-anchor="middle" x="650" y="249.3" stroke-linejoin="bevel" stroke-width="4" fill="#fff" stroke="#fff">18.9°C</text></g><text text-anchor="middle" x="650" y="249.3">18.9°C</text></g></g><g font-weight="normal" text-decoration="none" font-size="15" font-family="sans-serif" font-style="normal"><g font-weight="normal" text-decoration="none" font-size="15" font-family="sans-serif" font-style="normal" opacity="0.5" fill="#ba4545" stroke="none"><g opacity="0.4"><text text-anchor="middle" x="650" y="178" stroke-linejoin="bevel" stroke-width="4" fill="#fff" stroke="#fff">23.9°C</text></g><text text-anchor="middle" x="650" y="178">23.9°C</text></g></g><g font-weight="normal" text-decoration="none" font-size="15" font-family="sans-serif" font-style="normal"><g font-weight="normal" text-decoration="none" font-size="15" font-family="sans-serif" font-style="normal" stroke="none"><g stroke-linejoin="bevel" stroke-width="4" opacity="0.4" fill="#fff" stroke="#fff"><text text-anchor="middle" x="482" y="70.6">4:54 pm</text><text text-anchor="middle" x="482" y="88">33.3°C</text></g><text text-anchor="middle" x="482" y="70.6">4:54 pm</text><text text-anchor="middle" x="482" y="88">33.3°C</text></g></g><circle r="2" cx="482" cy="94.6" fill="#ba4545" stroke="none"></circle><g font-weight="normal" text-decoration="none" font-size="15" font-family="sans-serif" font-style="normal"><g font-weight="normal" text-decoration="none" font-size="15" font-family="sans-serif" font-style="normal" stroke="none"><g stroke-linejoin="bevel" stroke-width="4" opacity="0.4" fill="#fff" stroke="#fff"><text text-anchor="middle" x="245.1" y="259.7">17.8°C</text><text text-anchor="middle" x="245.1" y="277.2">5:54 am</text></g><text text-anchor="middle" x="245.1" y="259.7">17.8°C</text><text text-anchor="middle" x="245.1" y="277.2">5:54 am</text></g></g><circle r="2" cx="245.1" cy="242.8" fill="#4646b9" stroke="none"></circle></svg>